<?xml version="1.0" encoding="UTF-8"?>
<!-- Generator: Adobe Illustrator 27.0.0, SVG Export Plug-In . SVG Version: 6.00 Build 0)  -->
<svg version="1.1" id="Layer_1" xmlns="http://www.w3.org/2000/svg" xmlns:xlink="http://www.w3.org/1999/xlink" x="0px" y="0px" viewBox="0 0 48 48" style="enable-background:new 0 0 48 48;" xml:space="preserve">
<style type="text/css">
	.st0{fill-rule:evenodd;clip-rule:evenodd;fill:#FFFFFF;}
</style>
<path class="st0" d="M24.3,1.8c12.2,0,22.1,9.9,22.1,22.1S36.5,46,24.3,46S2.2,36.1,2.2,23.9S12.1,1.8,24.3,1.8z M24.3,10.1  c-3.8,0-4.2,0-5.7,0.1c-1.5,0.1-2.5,0.3-3.4,0.6c-0.9,0.4-1.7,0.8-2.4,1.6c-0.8,0.8-1.2,1.5-1.6,2.4c-0.3,0.9-0.6,1.9-0.6,3.4  c-0.1,1.5-0.1,1.9-0.1,5.7s0,4.2,0.1,5.7c0.1,1.5,0.3,2.5,0.6,3.4c0.4,0.9,0.8,1.7,1.6,2.4c0.8,0.8,1.5,1.2,2.4,1.6  c0.9,0.3,1.9,0.6,3.4,0.6c1.5,0.1,1.9,0.1,5.7,0.1s4.2,0,5.7-0.1c1.5-0.1,2.5-0.3,3.4-0.6c0.9-0.4,1.7-0.8,2.4-1.6  c0.8-0.8,1.2-1.5,1.6-2.4c0.3-0.9,0.6-1.9,0.6-3.4c0.1-1.5,0.1-1.9,0.1-5.7s0-4.2-0.1-5.7c-0.1-1.5-0.3-2.5-0.6-3.4  c-0.4-0.9-0.8-1.7-1.6-2.4c-0.8-0.8-1.5-1.2-2.4-1.6c-0.9-0.3-1.9-0.6-3.4-0.6C28.5,10.1,28.1,10.1,24.3,10.1z M24.3,12.6  c3.7,0,4.1,0,5.6,0.1c1.3,0.1,2.1,0.3,2.6,0.5c0.6,0.3,1.1,0.6,1.6,1c0.5,0.5,0.8,0.9,1,1.6c0.2,0.5,0.4,1.2,0.5,2.6  c0.1,1.5,0.1,1.9,0.1,5.6s0,4.1-0.1,5.6c-0.1,1.3-0.3,2.1-0.5,2.6c-0.3,0.6-0.6,1.1-1,1.6c-0.5,0.5-0.9,0.8-1.6,1  c-0.5,0.2-1.2,0.4-2.6,0.5c-1.5,0.1-1.9,0.1-5.6,0.1c-3.7,0-4.1,0-5.6-0.1c-1.3-0.1-2.1-0.3-2.6-0.5c-0.6-0.3-1.1-0.6-1.6-1  c-0.5-0.5-0.8-0.9-1-1.6c-0.2-0.5-0.4-1.2-0.5-2.6C13,28,13,27.6,13,23.9s0-4.1,0.1-5.6c0.1-1.3,0.3-2.1,0.5-2.6  c0.3-0.6,0.6-1.1,1-1.6c0.5-0.5,0.9-0.8,1.6-1c0.5-0.2,1.2-0.4,2.6-0.5C20.2,12.6,20.6,12.6,24.3,12.6L24.3,12.6z M24.3,16.8  c-3.9,0-7.1,3.2-7.1,7.1s3.2,7.1,7.1,7.1s7.1-3.2,7.1-7.1S28.2,16.8,24.3,16.8L24.3,16.8z M24.3,28.5c-2.5,0-4.6-2.1-4.6-4.6  c0-2.5,2.1-4.6,4.6-4.6c2.5,0,4.6,2.1,4.6,4.6S26.8,28.5,24.3,28.5z M33.3,16.5c0,0.9-0.7,1.7-1.7,1.7c-0.9,0-1.7-0.7-1.7-1.7  s0.7-1.7,1.7-1.7C32.6,14.9,33.3,15.6,33.3,16.5z"/>
<script xmlns=""/></svg>