<?xml version="1.0" encoding="UTF-8"?>
<!-- Generator: Adobe Illustrator 27.0.0, SVG Export Plug-In . SVG Version: 6.00 Build 0)  -->
<svg version="1.1" id="Layer_1" xmlns="http://www.w3.org/2000/svg" xmlns:xlink="http://www.w3.org/1999/xlink" x="0px" y="0px" viewBox="0 0 48 48" style="enable-background:new 0 0 48 48;" xml:space="preserve">
<style type="text/css">
	.st0{fill:#FFFFFF;}
</style>
<path class="st0" d="M23.8,2L23.8,2c12,0,21.7,9.7,21.7,21.7l0,0c0,12-9.7,21.7-21.7,21.7l0,0c-12,0-21.7-9.7-21.7-21.7l0,0  C2.2,11.7,11.9,2,23.8,2z M32.8,17.5c-1.1,0-2.2-0.4-2.9-1.2c-0.8-0.8-1.2-1.8-1.2-2.9c0-0.1,0-0.2,0-0.3l0,0c0-0.1,0-0.3,0-0.4  c0-0.2,0-0.6-0.3-0.8c-0.2-0.2-0.5-0.3-0.8-0.3c-0.2,0-0.4,0-0.6,0c-0.1,0-0.1,0-0.1,0h-0.1c-0.2,0-0.4,0-0.6,0s-0.6,0.1-0.8,0.3  c-0.2,0.2-0.3,0.6-0.3,0.8c0,0.1,0,0.3,0,0.4l0,0c0,0.1,0,0.2,0,0.3v14.8c0,0.8-0.2,1.6-0.7,2.3c-0.5,0.7-1.1,1.2-1.9,1.5  s-1.6,0.4-2.4,0.2s-1.5-0.6-2.1-1.1c-0.6-0.6-1-1.3-1.1-2.1c-0.2-0.8-0.1-1.6,0.2-2.4c0.3-0.8,0.8-1.4,1.5-1.9s1.5-0.7,2.3-0.7  c0.1,0,0.1,0,0.2,0h0.1c0.1,0,0.3,0,0.4,0c0.3,0,0.6-0.1,0.8-0.3c0.2-0.2,0.3-0.5,0.3-0.8c0-0.1,0-0.3,0-0.4v-0.1c0-0.1,0-0.2,0-0.2  s0,0,0-0.1c0-0.2,0-0.4,0-0.6s-0.1-0.5-0.3-0.7c-0.2-0.2-0.5-0.3-0.8-0.3c-0.2,0-0.4,0-0.5,0s-0.1,0-0.2,0c-1.5,0-3,0.5-4.3,1.3  s-2.2,2-2.8,3.4s-0.7,2.9-0.4,4.4s1,2.9,2.1,3.9c1.1,1.1,2.4,1.8,3.9,2.1s3,0.1,4.4-0.4c1.4-0.6,2.6-1.6,3.4-2.8  c0.8-1.3,1.3-2.7,1.3-4.3v-8.3c1.2,0.8,2.7,1.2,4.1,1.2c0.1,0,0.2,0,0.3,0l0,0c0.1,0,0.2,0,0.4,0s0.6,0,0.8-0.3  c0.2-0.2,0.3-0.5,0.3-0.8c0-0.2,0-0.5,0-0.7c0,0,0,0,0-0.1c0,0,0,0,0-0.1c0-0.2,0-0.4,0-0.6s-0.1-0.5-0.3-0.7l0,0.3l0.2-0.2  c-0.2-0.2-0.5-0.3-0.8-0.3c-0.2,0-0.4,0-0.6,0H32.8z"/>
<script xmlns=""/></svg>