<?xml version="1.0" encoding="UTF-8"?>
<!-- Generator: Adobe Illustrator 27.0.0, SVG Export Plug-In . SVG Version: 6.00 Build 0)  -->
<svg version="1.1" id="Layer_1" xmlns="http://www.w3.org/2000/svg" xmlns:xlink="http://www.w3.org/1999/xlink" x="0px" y="0px" viewBox="0 0 48 48" style="enable-background:new 0 0 48 48;" xml:space="preserve">
<style type="text/css">
	.st0{fill-rule:evenodd;clip-rule:evenodd;fill:#FFFFFF;}
</style>
<path class="st0" d="M24,2c12.2,0,22,9.9,22,22s-9.9,22-22,22S2,36.2,2,24S11.8,2,24,2z M20.1,35.7c9.7,0,15.1-8.1,15.1-15.1  c0-0.2,0-0.5,0-0.7c1-0.7,1.9-1.7,2.6-2.7c-0.9,0.4-2,0.7-3,0.8c1.1-0.7,1.9-1.7,2.3-2.9c-1,0.6-2.2,1-3.4,1.3c-1-1-2.3-1.7-3.9-1.7  c-2.9,0-5.3,2.4-5.3,5.3c0,0.4,0,0.8,0.1,1.2c-4.4-0.2-8.3-2.3-10.9-5.5c-0.5,0.8-0.7,1.7-0.7,2.7c0,1.8,0.9,3.5,2.4,4.4  c-0.9,0-1.7-0.3-2.4-0.7v0.1c0,2.6,1.8,4.7,4.3,5.2c-0.4,0.1-0.9,0.2-1.4,0.2c-0.3,0-0.7,0-1-0.1c0.7,2.1,2.6,3.6,4.9,3.7  c-1.8,1.4-4.1,2.3-6.6,2.3c-0.4,0-0.8,0-1.3-0.1C14.3,34.8,17.1,35.7,20.1,35.7L20.1,35.7z"/>
<script xmlns=""/></svg>